<?xml version="1.0" encoding="UTF-8"?>
<svg xmlns="http://www.w3.org/2000/svg" xmlns:xlink="http://www.w3.org/1999/xlink" width="150px" height="150px" viewBox="0 0 113 113" version="1.1">
<g id="surface1">
<path style=" stroke:none;fill-rule:nonzero;fill:rgb(0%,0%,0%);fill-opacity:1;" d="M 91.8125 57.164062 C 92.089844 56.5 91.949219 55.726562 91.425781 55.230469 L 69.410156 33.410156 C 68.722656 32.71875 67.617188 32.71875 66.929688 33.410156 C 66.238281 34.097656 66.238281 35.230469 66.929688 35.917969 L 85.769531 54.761719 L 22.953125 54.761719 C 21.988281 54.761719 21.1875 55.5625 21.1875 56.527344 C 21.1875 57.519531 21.988281 58.292969 22.953125 58.292969 L 85.769531 58.292969 L 67.09375 77.136719 C 66.402344 77.824219 66.402344 78.929688 67.09375 79.617188 C 67.785156 80.308594 68.914062 80.308594 69.605469 79.617188 L 91.453125 57.769531 C 91.621094 57.601562 91.730469 57.382812 91.8125 57.164062 Z M 91.8125 57.164062 "/>
</g>
</svg>
