<?xml version="1.0" encoding="UTF-8"?>
<svg xmlns="http://www.w3.org/2000/svg" xmlns:xlink="http://www.w3.org/1999/xlink" width="16px" height="16px" viewBox="0 0 16 16" version="1.1">
<g id="surface1">
<path style=" stroke:none;fill-rule:nonzero;fill:rgb(0%,0%,0%);fill-opacity:1;" d="M 15.335938 11.1875 L 15.335938 0 L 0.664062 0 L 0.664062 11.191406 L 0.28125 16 L 15.71875 16 Z M 0.980469 15.351562 L 1.308594 11.242188 L 1.3125 11.214844 L 1.3125 0.648438 L 14.6875 0.648438 L 14.6875 11.214844 L 14.691406 11.242188 L 15.019531 15.351562 Z M 12.210938 2.492188 C 12.210938 2.671875 12.132812 2.828125 12.011719 2.941406 C 11.871094 4.992188 10.160156 6.617188 8.074219 6.617188 C 6.007812 6.617188 4.3125 5.019531 4.144531 2.996094 C 3.980469 2.886719 3.871094 2.703125 3.871094 2.492188 C 3.871094 2.15625 4.140625 1.886719 4.476562 1.886719 C 4.8125 1.886719 5.082031 2.15625 5.082031 2.492188 C 5.082031 2.65625 5.015625 2.808594 4.90625 2.917969 C 5.035156 4.554688 6.402344 5.851562 8.074219 5.851562 C 9.726562 5.851562 11.085938 4.585938 11.242188 2.972656 C 11.09375 2.863281 11 2.6875 11 2.492188 C 11 2.15625 11.269531 1.886719 11.605469 1.886719 C 11.941406 1.886719 12.210938 2.160156 12.210938 2.492188 Z M 12.210938 2.492188 "/>
</g>
</svg>
